<svg xmlns="http://www.w3.org/2000/svg" width="52.8" height="50.4" viewBox="0 0 52.8 50.4">
  <path id="Icon_simple-matrix" data-name="Icon simple-matrix" d="M1.39,1.155v48.09H5.016V50.4H0V0H5.016V1.155ZM16.885,16.4v2.43h.073a7.174,7.174,0,0,1,2.457-2.15,6.853,6.853,0,0,1,3.3-.766,7.984,7.984,0,0,1,3.258.659A4.494,4.494,0,0,1,28.217,18.9a7.918,7.918,0,0,1,2.275-2.083,6.241,6.241,0,0,1,3.4-.9,10.48,10.48,0,0,1,2.772.351,5.605,5.605,0,0,1,2.185,1.113,5.174,5.174,0,0,1,1.421,2,7.889,7.889,0,0,1,.506,2.976V34.379H35.609V24.192c0-.6-.022-1.174-.07-1.705a3.556,3.556,0,0,0-.4-1.386,2.377,2.377,0,0,0-.964-.941,3.649,3.649,0,0,0-1.727-.349,3.465,3.465,0,0,0-1.767.4,2.963,2.963,0,0,0-1.056,1.048,3.96,3.96,0,0,0-.508,1.462,11.156,11.156,0,0,0-.132,1.649V34.379h-5.17V24.3c0-.533-.009-1.056-.04-1.579a4.185,4.185,0,0,0-.315-1.445,2.236,2.236,0,0,0-.913-1.056,3.61,3.61,0,0,0-1.879-.4,3.96,3.96,0,0,0-.966.155,3.291,3.291,0,0,0-1.166.592,3.455,3.455,0,0,0-.966,1.25,4.94,4.94,0,0,0-.4,2.142V34.388H12.012V16.4ZM51.41,49.245V1.155H47.784V0H52.8V50.4H47.784V49.245Z"/>
</svg>
