<svg xmlns="http://www.w3.org/2000/svg" width="72.6" height="60.197" viewBox="0 0 72.6 60.197">
  <path id="Icon_awesome-code" data-name="Icon awesome-code" d="M31.636,60.141,24.717,58.06a1.421,1.421,0,0,1-.93-1.752L39.27,1.021A1.357,1.357,0,0,1,40.96.057l6.919,2.081a1.421,1.421,0,0,1,.93,1.752L33.326,59.177a1.353,1.353,0,0,1-1.69.964ZM18.705,46.949l4.934-5.456a1.447,1.447,0,0,0-.091-2.022L13.272,30.1l10.277-9.371a1.436,1.436,0,0,0,.091-2.022L18.705,13.25a1.329,1.329,0,0,0-1.928-.059L.432,29.064a1.437,1.437,0,0,0,0,2.058L16.777,47.007a1.319,1.319,0,0,0,1.928-.059Zm37.114.071L72.164,31.134a1.437,1.437,0,0,0,0-2.058l-16.345-15.9a1.339,1.339,0,0,0-1.928.059l-4.934,5.456a1.447,1.447,0,0,0,.091,2.022L59.324,30.1,49.048,39.47a1.436,1.436,0,0,0-.091,2.022l4.934,5.456a1.329,1.329,0,0,0,1.928.071Z" transform="translate(0.002 -0.003)"/>
</svg>
